<svg width="102" height="37" viewBox="0 0 102 37" fill="none" xmlns="http://www.w3.org/2000/svg">
<path fill-rule="evenodd" clip-rule="evenodd" d="M66.4721 34.1969C71.6984 39.6015 83.2026 36.955 92.1675 28.2858C101.132 19.6166 104.163 8.20751 98.9369 2.80294C93.7106 -2.60162 82.2064 0.0448838 73.2415 8.71408C64.2765 17.3833 61.2458 28.7923 66.4721 34.1969ZM90.5725 13.2125C89.9809 13.1235 89.3002 13.0789 88.5304 13.0789C86.6179 13.0789 85.1958 13.4228 84.2639 14.1106C83.3319 14.7903 82.866 15.8422 82.866 17.2664C82.866 18.8038 83.3198 19.9407 84.2274 20.677C85.1431 21.4053 86.6058 21.7694 88.6155 21.7694C89.4258 21.7694 90.1349 21.7249 90.7427 21.6359C91.3504 21.5469 91.8934 21.4012 92.3715 21.1989C92.8577 20.9885 93.2467 20.7175 93.5384 20.3857C93.8382 20.0459 94.0651 19.6332 94.2191 19.1477C94.3812 18.6622 94.4622 18.0877 94.4622 17.4242C94.4622 16.7526 94.3731 16.17 94.1948 15.6764C94.0165 15.1747 93.7653 14.762 93.4411 14.4383C93.1251 14.1066 92.7159 13.8396 92.2135 13.6373C91.711 13.435 91.164 13.2934 90.5725 13.2125ZM90.6333 19.0142C90.1632 19.3621 89.4988 19.5361 88.6398 19.5361C87.7646 19.5361 87.1042 19.3459 86.6585 18.9656C86.2128 18.5772 85.9899 18.0634 85.9899 17.4242C85.9899 17.0924 86.0426 16.7971 86.1479 16.5381C86.2533 16.2792 86.4113 16.0567 86.622 15.8706C86.8408 15.6845 87.1163 15.5469 87.4486 15.4579C87.7808 15.3608 88.1657 15.3122 88.6033 15.3122C89.438 15.3122 90.1025 15.4943 90.5968 15.8584C91.0911 16.2145 91.3383 16.7364 91.3383 17.4242C91.3383 18.1362 91.1033 18.6662 90.6333 19.0142ZM82.3546 16.7445H75.4017V18.7472H78.9146C78.7931 18.8685 78.6918 18.9575 78.6108 19.0142C78.5378 19.0708 78.4122 19.1396 78.2339 19.2205C78.0557 19.3014 77.8207 19.3621 77.5289 19.4026C77.2372 19.4349 76.8847 19.4511 76.4714 19.4511C75.8799 19.4511 75.3855 19.4066 74.9885 19.3176C74.5914 19.2205 74.2916 19.083 74.089 18.9049C73.8945 18.7269 73.7608 18.5368 73.6878 18.3345C73.6149 18.1241 73.5784 17.8733 73.5784 17.582C73.5784 17.2664 73.619 16.9953 73.7 16.7687C73.781 16.5422 73.9228 16.3358 74.1254 16.1497C74.328 15.9555 74.6238 15.8099 75.0128 15.7128C75.4017 15.6157 75.888 15.5671 76.4714 15.5671C77.9949 15.5671 78.9633 15.8625 79.3765 16.4532L82.0264 15.5671C81.8238 15.1545 81.5888 14.8106 81.3214 14.5354C81.0621 14.2522 80.7217 14.0014 80.3004 13.7829C79.8871 13.5644 79.3644 13.4026 78.7323 13.2974C78.1083 13.1922 77.3628 13.1396 76.4957 13.1396C75.8636 13.1396 75.264 13.1963 74.6967 13.3096C74.1376 13.4148 73.6149 13.5847 73.1287 13.8193C72.6506 14.054 72.2332 14.3412 71.8767 14.6811C71.5282 15.0209 71.2527 15.4377 71.0501 15.9313C70.8475 16.4168 70.7462 16.9549 70.7462 17.5455C70.7462 18.0634 70.807 18.5287 70.9286 18.9414C71.0501 19.354 71.2487 19.7424 71.5242 20.1065C71.8078 20.4626 72.1684 20.762 72.606 21.0047C73.0517 21.2394 73.6068 21.4255 74.2713 21.563C74.9358 21.7006 75.7016 21.7694 76.5687 21.7694C77.533 21.7694 78.2664 21.6966 78.7688 21.5509C79.2793 21.3972 79.7169 21.1625 80.0816 20.8469V21.733H82.3546V16.7445Z" fill="#0E0E13"/>
<path d="M7.18139 5.69262L10.5277 13.1691H7.65944L7.0964 11.9088H3.4101L2.84706 13.1691H0L3.33573 5.69262H7.18139ZM4.29184 9.75129H6.21466L5.24794 7.78604L4.29184 9.75129Z" fill="#0E0E13"/>
<path d="M15.6601 13.1691H10.529V5.69262H15.6282C16.1098 5.69262 16.5383 5.7211 16.9136 5.77807C17.289 5.82791 17.6679 5.93472 18.0503 6.09849C18.4328 6.25514 18.7515 6.46875 19.0064 6.73933C19.2614 7.00279 19.4668 7.36237 19.6226 7.81808C19.7855 8.27379 19.8669 8.81139 19.8669 9.43087C19.8669 9.98626 19.7819 10.4847 19.612 10.9262C19.442 11.3676 19.2189 11.7272 18.9427 12.0049C18.6665 12.2755 18.3407 12.5033 17.9653 12.6885C17.59 12.8665 17.2111 12.9911 16.8286 13.0623C16.4533 13.1335 16.0638 13.1691 15.6601 13.1691ZM15.4901 11.1291C15.8796 11.1291 16.2125 11.0543 16.4887 10.9048C16.7649 10.7482 16.9667 10.5452 17.0942 10.296C17.2217 10.0468 17.2854 9.76197 17.2854 9.44155C17.2854 8.92888 17.1403 8.51945 16.8499 8.21327C16.5666 7.89997 16.1133 7.74332 15.4901 7.74332H13.0042V11.1291H15.4901Z" fill="#0E0E13"/>
<path d="M27.0084 5.67126H29.8448L26.1904 13.1691H22.9503L19.2746 5.67126H22.111L24.565 10.9796L27.0084 5.67126Z" fill="#0E0E13"/>
<path d="M34.7772 5.69262L38.1236 13.1691H35.2553L34.6922 11.9088H31.0059L30.4429 13.1691H27.5958L30.9316 5.69262H34.7772ZM31.8877 9.75129H33.8105L32.8438 7.78604L31.8877 9.75129Z" fill="#0E0E13"/>
<path d="M47.9751 13.1691H44.5969L40.9424 8.65118V13.1691H38.4672V5.67126H41.9198L45.5105 10.1144V5.67126H47.9751V13.1691Z" fill="#0E0E13"/>
<path d="M53.4929 5.60718C54.4278 5.60718 55.2316 5.68906 55.9044 5.85283C56.5772 6.00948 57.1084 6.2409 57.4979 6.54708C57.8875 6.84614 58.1707 7.19504 58.3478 7.59379C58.5249 7.99253 58.6134 8.45536 58.6134 8.98228H56.0744C56.0673 8.94668 56.0532 8.90039 56.0319 8.84343C56.0177 8.78647 55.9575 8.69034 55.8513 8.55505C55.7451 8.41264 55.607 8.28803 55.437 8.18123C55.267 8.0673 55.0085 7.96761 54.6615 7.88217C54.3215 7.7896 53.9249 7.74332 53.4717 7.74332C53.068 7.74332 52.7139 7.77536 52.4093 7.83944C52.1119 7.90353 51.8746 7.98541 51.6976 8.0851C51.5276 8.18479 51.3895 8.31295 51.2833 8.4696C51.1841 8.61913 51.1168 8.76866 51.0814 8.91819C51.046 9.0606 51.0283 9.22081 51.0283 9.39883C51.0283 9.64804 51.0673 9.86878 51.1452 10.061C51.2231 10.2533 51.3505 10.4313 51.5276 10.5951C51.7047 10.7517 51.9561 10.8728 52.2819 10.9582C52.6076 11.0437 53.0042 11.0864 53.4717 11.0864C53.9533 11.0864 54.3711 11.0508 54.7252 10.9796C55.0793 10.9084 55.3378 10.8229 55.5007 10.7232C55.6636 10.6235 55.7911 10.5239 55.8832 10.4242C55.9823 10.3174 56.039 10.2284 56.0532 10.1572L56.0744 10.0503H58.6134C58.6134 10.4135 58.5673 10.7446 58.4753 11.0437C58.3832 11.3356 58.2203 11.6204 57.9866 11.8981C57.7529 12.1758 57.4484 12.4072 57.073 12.5924C56.7047 12.7775 56.2231 12.927 55.6282 13.0409C55.0333 13.1478 54.3428 13.2012 53.5567 13.2012C52.5935 13.2012 51.7861 13.13 51.1345 12.9875C50.483 12.838 49.9589 12.6066 49.5623 12.2933C49.1728 11.9729 48.893 11.5884 48.723 11.1398C48.5531 10.6912 48.4681 10.1394 48.4681 9.48427C48.4681 8.77935 48.5743 8.17767 48.7868 7.67923C49.0063 7.17368 49.3321 6.77137 49.7641 6.47231C50.1961 6.16613 50.7167 5.9454 51.3258 5.81011C51.9348 5.67482 52.6572 5.60718 53.4929 5.60718Z" fill="#0E0E13"/>
<path d="M59.2698 5.67126H67.5029V7.754H61.745V8.4162H67.1417V10.4135H61.745V11.0864H67.5029V13.1691H59.2698V5.67126Z" fill="#0E0E13"/>
<path d="M70.7824 13.1691H68.509V11.3107H70.7824V13.1691Z" fill="#0E0E13"/>
</svg>
