<svg width="82" height="27" viewBox="0 0 82 27" fill="none" xmlns="http://www.w3.org/2000/svg">
<path fill-rule="evenodd" clip-rule="evenodd" d="M53.7011 24.6411C57.9235 28.4239 67.2179 26.5716 74.4608 20.5038C81.7037 14.4361 84.1523 6.4507 79.9299 2.66794C75.7075 -1.11481 66.4131 0.737527 59.1702 6.80526C51.9273 12.873 49.4787 20.8584 53.7011 24.6411ZM73.1698 9.95342C72.6918 9.89112 72.1419 9.85997 71.5199 9.85997C69.9748 9.85997 68.8258 10.1007 68.0729 10.5821C67.32 11.0578 66.9436 11.794 66.9436 12.7908C66.9436 13.8669 67.3102 14.6626 68.0435 15.178C68.7833 15.6877 69.965 15.9425 71.5887 15.9425C72.2434 15.9425 72.8162 15.9114 73.3073 15.8491C73.7983 15.7868 74.2369 15.6849 74.6232 15.5433C75.016 15.396 75.3303 15.2063 75.566 14.9741C75.8082 14.7362 75.9915 14.4474 76.1159 14.1076C76.2469 13.7678 76.3123 13.3657 76.3123 12.9013C76.3123 12.4312 76.2403 12.0234 76.0963 11.6779C75.9523 11.3268 75.7493 11.038 75.4874 10.8114C75.2321 10.5792 74.9015 10.3923 74.4955 10.2507C74.0896 10.1092 73.6477 10.0101 73.1698 9.95342ZM73.2189 14.0141C72.8391 14.2577 72.3023 14.3794 71.6083 14.3794C70.9012 14.3794 70.3676 14.2463 70.0076 13.9801C69.6475 13.7083 69.4674 13.3487 69.4674 12.9013C69.4674 12.6691 69.51 12.4623 69.5951 12.2811C69.6802 12.0999 69.8079 11.9441 69.9781 11.8139C70.1549 11.6836 70.3775 11.5873 70.6459 11.525C70.9143 11.4571 71.2253 11.4231 71.5788 11.4231C72.2532 11.4231 72.79 11.5505 73.1894 11.8054C73.5888 12.0546 73.7885 12.4199 73.7885 12.9013C73.7885 13.3996 73.5986 13.7706 73.2189 14.0141ZM66.5304 12.4255H60.9131V13.8272H63.7512C63.653 13.9122 63.5711 13.9745 63.5057 14.0141C63.4468 14.0538 63.3453 14.1019 63.2012 14.1585C63.0572 14.2152 62.8673 14.2577 62.6316 14.286C62.396 14.3086 62.1112 14.32 61.7773 14.32C61.2993 14.32 60.9 14.2888 60.5792 14.2265C60.2584 14.1585 60.0161 14.0623 59.8524 13.9377C59.6953 13.8131 59.5873 13.68 59.5284 13.5384C59.4694 13.3911 59.44 13.2156 59.44 13.0117C59.44 12.7908 59.4727 12.6011 59.5382 12.4425C59.6037 12.2839 59.7182 12.1395 59.8819 12.0093C60.0456 11.8733 60.2845 11.7714 60.5988 11.7034C60.9131 11.6355 61.3059 11.6015 61.7773 11.6015C63.0081 11.6015 63.7905 11.8082 64.1244 12.2216L66.2652 11.6015C66.1016 11.3127 65.9117 11.072 65.6957 10.8794C65.4862 10.6812 65.2112 10.5056 64.8707 10.3527C64.5368 10.1998 64.1145 10.0865 63.6039 10.0129C63.0998 9.93926 62.4974 9.90245 61.7969 9.90245C61.2862 9.90245 60.8018 9.94209 60.3435 10.0214C59.8917 10.095 59.4694 10.2139 59.0766 10.3782C58.6903 10.5424 58.3532 10.7435 58.0651 10.9813C57.7836 11.2192 57.561 11.5109 57.3973 11.8563C57.2336 12.1962 57.1518 12.5728 57.1518 12.9862C57.1518 13.3487 57.2009 13.6743 57.2991 13.9632C57.3973 14.252 57.5577 14.5238 57.7803 14.7787C58.0095 15.0279 58.3008 15.2374 58.6543 15.4073C59.0144 15.5716 59.4629 15.7018 59.9997 15.7981C60.5366 15.8944 61.1553 15.9425 61.8558 15.9425C62.6349 15.9425 63.2274 15.8916 63.6333 15.7896C64.0458 15.682 64.3993 15.5178 64.694 15.2969V15.9171H66.5304V12.4255Z" fill="white"/>
<path d="M5.80198 4.69066L8.50556 9.92357H6.1882L5.73331 9.04145H2.75508L2.30019 9.92357H0L2.695 4.69066H5.80198ZM3.46745 7.53139H5.02094L4.23991 6.15588L3.46745 7.53139Z" fill="white"/>
<path d="M12.6521 9.92357H8.50657V4.69066H12.6263C13.0154 4.69066 13.3616 4.7106 13.6648 4.75047C13.9681 4.78535 14.2742 4.86011 14.5832 4.97474C14.8922 5.08438 15.1497 5.23389 15.3556 5.42327C15.5616 5.60767 15.7276 5.85935 15.8534 6.17831C15.9851 6.49726 16.0509 6.87353 16.0509 7.30712C16.0509 7.69585 15.9822 8.04471 15.8449 8.3537C15.7075 8.66269 15.5273 8.91437 15.3042 9.10874C15.081 9.29812 14.8178 9.4576 14.5145 9.58717C14.2113 9.71177 13.9052 9.79898 13.5962 9.84882C13.2929 9.89866 12.9782 9.92357 12.6521 9.92357ZM12.5147 8.49574C12.8294 8.49574 13.0984 8.44341 13.3215 8.33875C13.5447 8.22911 13.7077 8.08707 13.8107 7.91264C13.9137 7.73821 13.9652 7.53886 13.9652 7.31459C13.9652 6.95577 13.8479 6.6692 13.6133 6.4549C13.3845 6.23562 13.0183 6.12598 12.5147 6.12598H10.5064V8.49574H12.5147Z" fill="white"/>
<path d="M21.8206 4.67571H24.1122L21.1597 9.92357H18.5419L15.5723 4.67571H17.8639L19.8465 8.39108L21.8206 4.67571Z" fill="white"/>
<path d="M28.0972 4.69066L30.8007 9.92357H28.4834L28.0285 9.04145H25.0503L24.5954 9.92357H22.2952L24.9902 4.69066H28.0972ZM25.7626 7.53139H27.3161L26.5351 6.15588L25.7626 7.53139Z" fill="white"/>
<path d="M38.76 9.92357H36.0306L33.0781 6.7614V9.92357H31.0783V4.67571H33.8678L36.7687 7.78556V4.67571H38.76V9.92357Z" fill="white"/>
<path d="M43.2179 4.63086C43.9732 4.63086 44.6226 4.68817 45.1662 4.8028C45.7098 4.91244 46.1389 5.07441 46.4536 5.28871C46.7683 5.49803 46.9972 5.74223 47.1403 6.02132C47.2833 6.30041 47.3548 6.62435 47.3548 6.99314H45.3035C45.2978 6.96823 45.2864 6.93583 45.2692 6.89596C45.2578 6.85609 45.2091 6.78881 45.1233 6.69412C45.0375 6.59445 44.9259 6.50723 44.7886 6.43248C44.6512 6.35274 44.4424 6.28296 44.162 6.22316C43.8874 6.15837 43.567 6.12598 43.2008 6.12598C42.8746 6.12598 42.5885 6.1484 42.3425 6.19326C42.1021 6.23811 41.9105 6.29542 41.7674 6.3652C41.6301 6.43497 41.5185 6.52467 41.4327 6.63432C41.3526 6.73897 41.2982 6.84363 41.2696 6.94829C41.241 7.04797 41.2267 7.1601 41.2267 7.28469C41.2267 7.45912 41.2582 7.61362 41.3211 7.74818C41.3841 7.88274 41.4871 8.00733 41.6301 8.12196C41.7731 8.2316 41.9763 8.31632 42.2395 8.37613C42.5027 8.43593 42.8231 8.46583 43.2008 8.46583C43.5898 8.46583 43.9274 8.44092 44.2135 8.39108C44.4996 8.34124 44.7085 8.28144 44.8401 8.21166C44.9717 8.14189 45.0747 8.07212 45.149 8.00235C45.2292 7.92759 45.2749 7.8653 45.2864 7.81546L45.3035 7.7407H47.3548C47.3548 7.99487 47.3176 8.22662 47.2433 8.43593C47.1689 8.64026 47.0373 8.83961 46.8484 9.03398C46.6596 9.22834 46.4136 9.39032 46.1103 9.51989C45.8128 9.64947 45.4237 9.75413 44.9431 9.83387C44.4624 9.90862 43.9045 9.946 43.2694 9.946C42.4912 9.946 41.8389 9.89616 41.3125 9.79649C40.7861 9.69183 40.3627 9.52986 40.0423 9.31058C39.7276 9.08631 39.5016 8.81719 39.3642 8.50321C39.2269 8.18924 39.1582 7.803 39.1582 7.3445C39.1582 6.85111 39.2441 6.42998 39.4157 6.08112C39.5931 5.72728 39.8563 5.4457 40.2054 5.23638C40.5544 5.02208 40.9749 4.86759 41.467 4.7729C41.9591 4.6782 42.5427 4.63086 43.2179 4.63086Z" fill="white"/>
<path d="M47.8852 4.67571H54.5368V6.13345H49.8849V6.59694H54.245V7.99487H49.8849V8.46583H54.5368V9.92357H47.8852V4.67571Z" fill="white"/>
<path d="M57.1864 9.92357H55.3496V8.62282H57.1864V9.92357Z" fill="white"/>
</svg>
